<mxfile host="Electron" agent="Mozilla/5.0 (Windows NT 10.0; Win64; x64) AppleWebKit/537.36 (KHTML, like Gecko) draw.io/28.2.5 Chrome/138.0.7204.251 Electron/37.6.1 Safari/537.36" version="28.2.5">
  <diagram name="Pagina-1" id="MN7WsSKvXLgIGYer2BLl">
    <mxGraphModel dx="485" dy="339" grid="1" gridSize="10" guides="1" tooltips="1" connect="1" arrows="1" fold="1" page="1" pageScale="1" pageWidth="827" pageHeight="1169" math="1" shadow="0">
      <root>
        <mxCell id="0" />
        <mxCell id="1" parent="0" />
        <mxCell id="lpgbFSDSMAnK1BwwCrsC-128" value="&lt;div style=&quot;&quot;&gt;&lt;font face=&quot;Comic Sans MS&quot;&gt;&lt;span style=&quot;font-size: 15px;&quot;&gt;START&lt;/span&gt;&lt;/font&gt;&lt;/div&gt;" style="text;whiteSpace=wrap;html=1;align=center;" parent="1" vertex="1">
          <mxGeometry x="205" y="1069" width="60" height="30" as="geometry" />
        </mxCell>
        <mxCell id="lpgbFSDSMAnK1BwwCrsC-129" value="" style="curved=1;endArrow=classic;html=1;rounded=0;sketch=1;curveFitting=1;jiggle=2;entryX=0;entryY=0.5;entryDx=0;entryDy=0;" parent="1" target="lpgbFSDSMAnK1BwwCrsC-130" edge="1">
          <mxGeometry width="50" height="50" relative="1" as="geometry">
            <mxPoint x="225" y="1069" as="sourcePoint" />
            <mxPoint x="255" y="1039" as="targetPoint" />
            <Array as="points" />
          </mxGeometry>
        </mxCell>
        <mxCell id="lpgbFSDSMAnK1BwwCrsC-130" value="$$a$$" style="ellipse;whiteSpace=wrap;html=1;fillColor=none;fontColor=#ffffff;strokeColor=#006EAF;sketch=1;curveFitting=1;jiggle=2;" parent="1" vertex="1">
          <mxGeometry x="275" y="1049" width="40" height="40" as="geometry" />
        </mxCell>
        <mxCell id="lpgbFSDSMAnK1BwwCrsC-132" value="$$d$$" style="ellipse;whiteSpace=wrap;html=1;fillColor=#1ba1e2;fontColor=#ffffff;strokeColor=#006EAF;sketch=1;curveFitting=1;jiggle=2;" parent="1" vertex="1">
          <mxGeometry x="461.5" y="1049" width="40" height="40" as="geometry" />
        </mxCell>
        <mxCell id="lpgbFSDSMAnK1BwwCrsC-139" value="" style="curved=1;endArrow=none;html=1;rounded=0;sketch=1;curveFitting=1;jiggle=2;exitX=0;exitY=0.5;exitDx=0;exitDy=0;strokeColor=#97D077;entryX=1;entryY=0.5;entryDx=0;entryDy=0;startArrow=classic;startFill=1;endFill=0;" parent="1" source="lpgbFSDSMAnK1BwwCrsC-132" target="lpgbFSDSMAnK1BwwCrsC-130" edge="1">
          <mxGeometry width="50" height="50" relative="1" as="geometry">
            <mxPoint x="525" y="1094" as="sourcePoint" />
            <mxPoint x="311" y="1089" as="targetPoint" />
            <Array as="points" />
          </mxGeometry>
        </mxCell>
        <mxCell id="lpgbFSDSMAnK1BwwCrsC-140" value="&lt;font style=&quot;color: rgb(151, 208, 119);&quot;&gt;$$\begin{align}\emptyset\cup (0,1)^{*}2(0,1)^{*}\mathcal{E} \\=(0,1)^{*}2(0,1)^{*}\mathcal{E}\end{align}$$&lt;/font&gt;" style="text;html=1;align=center;verticalAlign=middle;whiteSpace=wrap;rounded=0;fontColor=default;fillColor=none;" parent="1" vertex="1">
          <mxGeometry x="300" y="1030" width="171.5" height="30" as="geometry" />
        </mxCell>
      </root>
    </mxGraphModel>
  </diagram>
</mxfile>
